<svg width="483" height="105" viewBox="0 0 483 105" fill="none" xmlns="http://www.w3.org/2000/svg">
<mask id="path-1-outside-1_119_19" maskUnits="userSpaceOnUse" x="-0.76506" y="0" width="485" height="105" fill="black">
<rect fill="white" x="-0.76506" width="485" height="105"/>
<path d="M39.2519 0.875022H56.3015L70.0081 20.4877H55.9672L47.8325 9.78986L39.5862 20.5991H30.0028H25.6568L39.2519 0.875022ZM10.9473 80.3285C7.49283 78.6569 4.81838 76.2054 2.92398 73.0852C1.02958 69.965 0.138098 66.399 0.138098 62.2759V47.3436C0.138098 43.109 1.02958 39.3202 2.92398 35.9772C4.81838 32.6341 7.49283 30.0711 10.9473 28.2881C14.4018 26.5052 18.4135 25.5022 22.9824 25.5022H31.8972C38.5833 25.5022 44.0436 27.5081 48.1668 31.4083C52.1784 35.42 54.2957 40.6575 54.2957 47.1207V58.2643H12.9532V62.2759C12.9532 65.2847 13.8447 67.6248 15.6276 69.4078C17.4106 71.1908 19.8622 72.0822 22.9824 72.0822H31.5629C34.4602 72.0822 36.9118 71.4136 38.6947 69.965C40.4777 68.5163 41.4806 66.6219 41.4806 64.1703H54.0728C54.0728 69.8535 51.9556 74.4224 47.8325 77.7655C43.5979 81.22 38.1376 82.8915 31.4514 82.8915H22.9824C18.4135 82.8915 14.4018 82.1114 10.9473 80.3285ZM41.7035 48.6808V47.1207C41.7035 43.8891 40.812 41.2146 39.0291 39.2088C37.2461 37.203 34.9059 36.2 32.0086 36.2H22.9824C19.8622 36.2 17.4106 37.3144 15.5162 39.4317C13.6218 41.5489 12.7303 44.3348 12.7303 47.6779V48.6808H41.7035ZM80.1862 53.6954L59.9049 26.3937H74.1686L87.5409 44.3348L100.913 26.3937H115.177L94.8956 53.6954L115.957 82H101.582L87.5409 63.056L73.5 82H59.1249L80.1862 53.6954ZM123.488 26.3937H135.411V32.9684C136.971 30.7397 138.977 28.9567 141.429 27.6195C143.88 26.2823 146.332 25.5022 148.783 25.5022H156.138C162.601 25.5022 167.727 27.5081 171.739 31.4083C175.751 35.3086 177.757 40.4346 177.757 46.7864V59.7129C177.757 66.7333 175.751 72.3051 171.85 76.5397C167.839 80.7742 162.601 82.8915 156.138 82.8915H148.672C146.443 82.8915 144.214 82.4457 141.986 81.3314C139.646 80.217 137.751 78.7684 136.303 76.9854V104.287H123.488V26.3937ZM154.801 71.8594C157.81 71.8594 160.261 70.745 162.156 68.2934C164.05 65.9533 165.053 62.8331 165.053 58.9329V47.5665C165.053 44.3348 164.05 41.6604 162.267 39.6545C160.373 37.6487 157.921 36.5344 154.912 36.5344H147.78C145.217 36.5344 142.877 37.5373 140.76 39.5431C138.643 41.5489 137.194 44.0005 136.303 47.1207V60.0472C136.637 63.6132 137.863 66.399 139.98 68.6278C142.097 70.8565 144.66 71.8594 147.669 71.8594H154.801ZM193.773 76.9854C189.538 72.9737 187.532 67.7363 187.532 61.1616V47.3436C187.532 43.109 188.424 39.3202 190.318 35.9772C192.213 32.6341 194.887 30.0711 198.342 28.2881C201.796 26.5052 205.808 25.5022 210.377 25.5022H220.183C224.64 25.5022 228.652 26.5052 232.107 28.2881C235.561 30.0711 238.235 32.6341 240.13 35.9772C242.024 39.3202 243.027 43.109 243.027 47.3436V61.1616C243.027 67.7363 240.91 72.9737 236.675 76.9854C232.441 80.9971 226.869 82.8915 219.96 82.8915H210.265C203.356 82.8915 197.896 80.9971 193.773 76.9854ZM219.849 71.8594C222.969 71.8594 225.42 70.8565 227.315 68.7392C229.209 66.6219 230.212 63.836 230.212 60.3815V48.0122C230.212 44.6691 229.209 41.8833 227.426 39.766C225.532 37.6487 223.08 36.5344 219.96 36.5344H210.6C207.479 36.5344 204.916 37.6487 203.133 39.766C201.239 41.8833 200.347 44.6691 200.347 48.0122V60.3815C200.347 63.836 201.239 66.6219 203.133 68.7392C204.916 70.8565 207.368 71.8594 210.377 71.8594H219.849ZM255.055 26.3937H266.979V33.637C268.539 31.1855 270.768 29.2911 273.442 27.731C276.117 26.2823 278.791 25.5022 281.465 25.5022H288.374C294.058 25.5022 298.627 27.3967 302.081 30.9626C305.536 34.64 307.318 39.4317 307.318 45.3377V82H294.503V45.6721C294.503 42.9976 293.723 40.8803 292.386 39.2088C291.049 37.5373 289.266 36.6458 287.037 36.6458H280.128C277.231 36.6458 274.556 37.7601 272.328 39.9889C269.988 42.2176 268.539 45.0034 267.87 48.3465V82H255.055V26.3937ZM329.474 80.3285C326.02 78.6569 323.345 76.2054 321.451 73.0852C319.556 69.965 318.665 66.399 318.665 62.2759V47.3436C318.665 43.109 319.556 39.3202 321.451 35.9772C323.345 32.6341 326.02 30.0711 329.474 28.2881C332.929 26.5052 336.94 25.5022 341.509 25.5022H350.424C357.11 25.5022 362.57 27.5081 366.694 31.4083C370.705 35.42 372.823 40.6575 372.823 47.1207V58.2643H331.48V62.2759C331.48 65.2847 332.371 67.6248 334.154 69.4078C335.937 71.1908 338.389 72.0822 341.509 72.0822H350.09C352.987 72.0822 355.439 71.4136 357.222 69.965C359.005 68.5163 360.007 66.6219 360.007 64.1703H372.6C372.6 69.8535 370.482 74.4224 366.359 77.7655C362.125 81.22 356.664 82.8915 349.978 82.8915H341.509C336.94 82.8915 332.929 82.1114 329.474 80.3285ZM360.23 48.6808V47.1207C360.23 43.8891 359.339 41.2146 357.556 39.2088C355.773 37.203 353.433 36.2 350.535 36.2H341.509C338.389 36.2 335.937 37.3144 334.043 39.4317C332.149 41.5489 331.257 44.3348 331.257 47.6779V48.6808H360.23ZM384.338 26.3937H396.261V33.637C397.821 31.1855 400.05 29.2911 402.725 27.731C405.399 26.2823 408.073 25.5022 410.748 25.5022H417.657C423.34 25.5022 427.909 27.3967 431.363 30.9626C434.818 34.64 436.601 39.4317 436.601 45.3377V82H423.786V45.6721C423.786 42.9976 423.006 40.8803 421.669 39.2088C420.331 37.5373 418.548 36.6458 416.32 36.6458H409.411C406.513 36.6458 403.839 37.7601 401.61 39.9889C399.27 42.2176 397.821 45.0034 397.153 48.3465V82H384.338V26.3937ZM459.871 77.7655C456.974 74.9796 455.525 70.5222 455.525 64.3932V37.4258H445.719V26.3937H455.859V9.56698H468.34V26.3937H482.827V37.4258H468.34V63.9475C468.34 66.399 468.786 68.182 469.789 69.2964C470.68 70.4107 472.24 70.9679 474.358 70.9679H482.827V82H473.689C467.337 82 462.768 80.6628 459.871 77.7655Z"/>
</mask>
<path d="M39.2519 0.875022H56.3015L70.0081 20.4877H55.9672L47.8325 9.78986L39.5862 20.5991H30.0028H25.6568L39.2519 0.875022ZM10.9473 80.3285C7.49283 78.6569 4.81838 76.2054 2.92398 73.0852C1.02958 69.965 0.138098 66.399 0.138098 62.2759V47.3436C0.138098 43.109 1.02958 39.3202 2.92398 35.9772C4.81838 32.6341 7.49283 30.0711 10.9473 28.2881C14.4018 26.5052 18.4135 25.5022 22.9824 25.5022H31.8972C38.5833 25.5022 44.0436 27.5081 48.1668 31.4083C52.1784 35.42 54.2957 40.6575 54.2957 47.1207V58.2643H12.9532V62.2759C12.9532 65.2847 13.8447 67.6248 15.6276 69.4078C17.4106 71.1908 19.8622 72.0822 22.9824 72.0822H31.5629C34.4602 72.0822 36.9118 71.4136 38.6947 69.965C40.4777 68.5163 41.4806 66.6219 41.4806 64.1703H54.0728C54.0728 69.8535 51.9556 74.4224 47.8325 77.7655C43.5979 81.22 38.1376 82.8915 31.4514 82.8915H22.9824C18.4135 82.8915 14.4018 82.1114 10.9473 80.3285ZM41.7035 48.6808V47.1207C41.7035 43.8891 40.812 41.2146 39.0291 39.2088C37.2461 37.203 34.9059 36.2 32.0086 36.2H22.9824C19.8622 36.2 17.4106 37.3144 15.5162 39.4317C13.6218 41.5489 12.7303 44.3348 12.7303 47.6779V48.6808H41.7035ZM80.1862 53.6954L59.9049 26.3937H74.1686L87.5409 44.3348L100.913 26.3937H115.177L94.8956 53.6954L115.957 82H101.582L87.5409 63.056L73.5 82H59.1249L80.1862 53.6954ZM123.488 26.3937H135.411V32.9684C136.971 30.7397 138.977 28.9567 141.429 27.6195C143.88 26.2823 146.332 25.5022 148.783 25.5022H156.138C162.601 25.5022 167.727 27.5081 171.739 31.4083C175.751 35.3086 177.757 40.4346 177.757 46.7864V59.7129C177.757 66.7333 175.751 72.3051 171.85 76.5397C167.839 80.7742 162.601 82.8915 156.138 82.8915H148.672C146.443 82.8915 144.214 82.4457 141.986 81.3314C139.646 80.217 137.751 78.7684 136.303 76.9854V104.287H123.488V26.3937ZM154.801 71.8594C157.81 71.8594 160.261 70.745 162.156 68.2934C164.05 65.9533 165.053 62.8331 165.053 58.9329V47.5665C165.053 44.3348 164.05 41.6604 162.267 39.6545C160.373 37.6487 157.921 36.5344 154.912 36.5344H147.78C145.217 36.5344 142.877 37.5373 140.76 39.5431C138.643 41.5489 137.194 44.0005 136.303 47.1207V60.0472C136.637 63.6132 137.863 66.399 139.98 68.6278C142.097 70.8565 144.66 71.8594 147.669 71.8594H154.801ZM193.773 76.9854C189.538 72.9737 187.532 67.7363 187.532 61.1616V47.3436C187.532 43.109 188.424 39.3202 190.318 35.9772C192.213 32.6341 194.887 30.0711 198.342 28.2881C201.796 26.5052 205.808 25.5022 210.377 25.5022H220.183C224.64 25.5022 228.652 26.5052 232.107 28.2881C235.561 30.0711 238.235 32.6341 240.13 35.9772C242.024 39.3202 243.027 43.109 243.027 47.3436V61.1616C243.027 67.7363 240.91 72.9737 236.675 76.9854C232.441 80.9971 226.869 82.8915 219.96 82.8915H210.265C203.356 82.8915 197.896 80.9971 193.773 76.9854ZM219.849 71.8594C222.969 71.8594 225.42 70.8565 227.315 68.7392C229.209 66.6219 230.212 63.836 230.212 60.3815V48.0122C230.212 44.6691 229.209 41.8833 227.426 39.766C225.532 37.6487 223.08 36.5344 219.96 36.5344H210.6C207.479 36.5344 204.916 37.6487 203.133 39.766C201.239 41.8833 200.347 44.6691 200.347 48.0122V60.3815C200.347 63.836 201.239 66.6219 203.133 68.7392C204.916 70.8565 207.368 71.8594 210.377 71.8594H219.849ZM255.055 26.3937H266.979V33.637C268.539 31.1855 270.768 29.2911 273.442 27.731C276.117 26.2823 278.791 25.5022 281.465 25.5022H288.374C294.058 25.5022 298.627 27.3967 302.081 30.9626C305.536 34.64 307.318 39.4317 307.318 45.3377V82H294.503V45.6721C294.503 42.9976 293.723 40.8803 292.386 39.2088C291.049 37.5373 289.266 36.6458 287.037 36.6458H280.128C277.231 36.6458 274.556 37.7601 272.328 39.9889C269.988 42.2176 268.539 45.0034 267.87 48.3465V82H255.055V26.3937ZM329.474 80.3285C326.02 78.6569 323.345 76.2054 321.451 73.0852C319.556 69.965 318.665 66.399 318.665 62.2759V47.3436C318.665 43.109 319.556 39.3202 321.451 35.9772C323.345 32.6341 326.02 30.0711 329.474 28.2881C332.929 26.5052 336.94 25.5022 341.509 25.5022H350.424C357.11 25.5022 362.57 27.5081 366.694 31.4083C370.705 35.42 372.823 40.6575 372.823 47.1207V58.2643H331.48V62.2759C331.48 65.2847 332.371 67.6248 334.154 69.4078C335.937 71.1908 338.389 72.0822 341.509 72.0822H350.09C352.987 72.0822 355.439 71.4136 357.222 69.965C359.005 68.5163 360.007 66.6219 360.007 64.1703H372.6C372.6 69.8535 370.482 74.4224 366.359 77.7655C362.125 81.22 356.664 82.8915 349.978 82.8915H341.509C336.94 82.8915 332.929 82.1114 329.474 80.3285ZM360.23 48.6808V47.1207C360.23 43.8891 359.339 41.2146 357.556 39.2088C355.773 37.203 353.433 36.2 350.535 36.2H341.509C338.389 36.2 335.937 37.3144 334.043 39.4317C332.149 41.5489 331.257 44.3348 331.257 47.6779V48.6808H360.23ZM384.338 26.3937H396.261V33.637C397.821 31.1855 400.05 29.2911 402.725 27.731C405.399 26.2823 408.073 25.5022 410.748 25.5022H417.657C423.34 25.5022 427.909 27.3967 431.363 30.9626C434.818 34.64 436.601 39.4317 436.601 45.3377V82H423.786V45.6721C423.786 42.9976 423.006 40.8803 421.669 39.2088C420.331 37.5373 418.548 36.6458 416.32 36.6458H409.411C406.513 36.6458 403.839 37.7601 401.61 39.9889C399.27 42.2176 397.821 45.0034 397.153 48.3465V82H384.338V26.3937ZM459.871 77.7655C456.974 74.9796 455.525 70.5222 455.525 64.3932V37.4258H445.719V26.3937H455.859V9.56698H468.34V26.3937H482.827V37.4258H468.34V63.9475C468.34 66.399 468.786 68.182 469.789 69.2964C470.68 70.4107 472.24 70.9679 474.358 70.9679H482.827V82H473.689C467.337 82 462.768 80.6628 459.871 77.7655Z" fill="black"/>
</svg>